<svg t="1762827884703" class="icon" viewBox="0 0 2378 1024" version="1.1"
  xmlns="http://www.w3.org/2000/svg" p-id="10438" width="200" height="200">
  <path
    d="M434.836645 138.570323c-27.94529 33.395613-72.538839 59.656258-117.132387 55.89058-5.549419-45.089032 16.251871-92.952774 41.818839-122.549677C387.468387 37.557677 436.224 13.278968 475.664516 11.297032c4.657548 46.971871-13.477161 92.952774-40.827871 127.240258z m40.332387 64.80929c-64.512-3.765677-119.907097 37.16129-150.428903 37.16129-31.215484 0-78.088258-35.278452-129.222194-34.287484-66.394839 0.990968-128.132129 38.978065-162.023225 99.592258-69.764129 121.096258-18.13471 300.593548 49.152 399.161807 32.999226 48.887742 72.538839 102.4 124.564645 100.484129 49.152-1.882839 68.674065-32.371613 128.132129-32.371613 59.953548 0 77.09729 32.371613 129.222193 31.479742 53.809548-0.990968 87.700645-48.85471 120.699871-97.709419 37.656774-55.494194 53.016774-109.402839 53.908646-112.276646-0.990968-0.990968-104.051613-40.827871-105.042581-161.032258-0.891871-100.583226 81.259355-148.446968 85.025032-151.221677-46.37729-69.565935-118.916129-77.09729-143.987613-78.947097zM848.268387 67.220645v732.226065h112.474839v-250.318452h155.581935c142.104774 0 241.994323-98.700387 241.994323-241.399742 0-142.798452-98.00671-240.474839-238.228645-240.474839h-271.921549 0.099097z m112.474839 95.826581h129.61858c97.511226 0 153.203613 52.52129 153.203613 145.077677 0 92.556387-55.692387 145.672258-153.699096 145.672258h-129.222194V162.948129l0.099097 0.099097zM1563.648 804.996129c70.656 0 136.158968-36.071226 165.888-93.448258h2.279226v87.898839h104.051613V434.968774c0-105.637161-83.637677-173.815742-212.265291-173.815742-119.411613 0-207.607742 69.070452-210.877935 163.906065h101.276903c8.324129-45.089032 49.647484-74.619871 106.330839-74.619871 68.773161 0 107.321806 32.404645 107.321806 92.060903v40.332387l-140.321032 8.522323c-130.510452 7.927742-201.166452 61.935484-201.166452 155.912258 0 94.802581 72.935226 157.729032 177.482323 157.729032z m30.224516-86.808774c-59.953548 0-98.105806-29.134452-98.105806-73.728 0-46.08 36.764903-72.836129 106.925419-77.09729l124.861936-7.927742v41.323354c0 68.574968-57.476129 117.429677-133.780646 117.429678h0.099097z m380.928 280.443871c109.601032 0 161.131355-42.28129 206.12129-170.545549L2378.322581 268.221935h-114.258581l-132.39329 432.55742h-2.279226L1996.998194 268.221935h-117.528775l190.364904 533.140646-10.206968 32.404645c-17.143742 54.899613-44.989935 76.007226-94.736516 76.007226a366.658065 366.658065 0 0 1-32.999226-1.882839v87.898839c6.540387 1.882839 34.386581 2.77471 42.809806 2.774709l0.099097 0.099097z"
    fill="#ffffff" p-id="10439"></path>
</svg>