<svg t="1762827433819" class="icon" viewBox="0 0 2599 1024" version="1.1"
  xmlns="http://www.w3.org/2000/svg" p-id="5610" width="200" height="200">
  <path
    d="M1212.97182 156.186514v242.015004h149.251478c35.564292 0 64.964106-11.973312 88.199443-35.86066 23.887349-23.828075 35.860661-52.279509 35.86066-85.176479 0-32.244958-11.973312-60.340748-35.86066-84.287371-23.235337-24.480087-52.635152-36.749768-88.199443-36.749768h-149.251478z m0 327.191483v280.720808h-89.147824V71.010036h236.502539c60.044379 0 111.019864 19.975277 153.045002 59.985105 42.67715 40.009828 64.015725 88.732908 64.015725 146.169238 0 58.740355-21.338575 107.819077-64.015725 147.11762-41.313852 39.41709-92.407884 59.036724-153.104275 59.036724h-147.295442v0.059274z m454.511647 135.559225c0 23.235337 9.839454 42.558602 29.577636 58.088342 19.678908 15.411193 42.795698 23.176063 69.231821 23.176064 37.520328 0 70.891488-13.870074 100.291302-41.550948 29.459088-27.799421 44.099722-60.400022 44.099722-97.801801-27.799421-21.931313-66.564499-32.89697-116.295234-32.89697-36.15703 0-66.386678 8.772525-90.570396 26.199028-24.242992 17.426503-36.334851 38.942899-36.334851 64.786285m115.346853-344.67726c65.912487 0 117.895627 17.604324 156.067966 52.753699 38.053792 35.208649 57.139962 83.457538 57.139962 144.746667v292.338477h-85.295026v-65.793939h-3.852799c-36.868316 54.176271-85.947038 81.32368-147.354714 81.32368-52.279509 0-96.082861-15.529741-131.29151-46.470675-35.208649-31.000208-52.812973-69.706012-52.812973-116.176686 0-49.078722 18.552705-88.080896 55.71739-117.125067s86.717598-43.566257 148.777286-43.566257c52.872247 0 96.557052 9.661633 130.758046 29.044172v-20.390194c0-30.940934-12.269681-57.258509-36.809042-78.83418a126.371783 126.371783 0 0 0-86.243407-32.422779c-49.790008 0-89.147824 20.923658-118.25127 62.948796l-78.478536-49.434365c43.269888-61.941141 107.285613-92.941349 191.928627-92.941349m702.57258 15.529741l-297.554573 683.427137H2095.796086l110.486399-239.110588-195.722152-444.316549h96.912695l141.486607 340.765187h1.896762l137.633809-340.824461z"
    fill="#FFFFFF" p-id="5611" data-spm-anchor-id="a313x.search_index.0.i2.8ef83a81hohB2h"
    class="selected"></path>
  <path
    d="M852.705547 422.859427c0-28.036517-2.370953-55.124652-6.875763-80.968037H469.796674v153.400644h215.401059a184.341578 184.341578 0 0 1-79.664013 121.037139v99.580017h128.564914c75.277751-69.350369 118.606912-171.894076 118.606913-293.049763"
    fill="#4285F4" p-id="5612"></path>
  <path
    d="M469.796674 812.051325c107.641256 0 198.211652-35.267923 264.30196-96.082861l-128.564914-99.639291c-35.742113 24.065171-81.797871 38.113066-135.737046 38.113066-103.966279 0-192.28427-70.061654-223.817942-164.425575H113.561019v102.602982a398.794256 398.794256 0 0 0 356.235655 219.490953"
    fill="#34A853" p-id="5613"></path>
  <path
    d="M245.978732 490.016664a239.110587 239.110587 0 0 1 0-152.452263V234.96142H113.561019A395.830566 395.830566 0 0 0 71.061691 413.731259c0 64.312094 15.411193 125.067759 42.499328 178.829113l132.417713-102.602981z"
    fill="#FABB05" p-id="5614"></path>
  <path
    d="M469.796674 173.138826c58.799629 0 111.43478 20.153099 152.926454 59.74801v0.059274l113.805733-113.687185C667.534135 55.006104 577.43793 15.529741 469.855947 15.529741a398.794256 398.794256 0 0 0-356.235654 219.431679l132.417713 102.602981c31.533672-94.36392 119.851663-164.425575 223.817941-164.425575"
    fill="#E94235" p-id="5615"></path>
</svg>